<svg id="visual" viewBox="0 0 1920 1080" width="1920" height="1080" xmlns="http://www.w3.org/2000/svg" xmlns:xlink="http://www.w3.org/1999/xlink" version="1.1"><rect x="0" y="0" width="1920" height="1080" fill="#ffffff"></rect><path d="M0 625L80 659.7C160 694.3 320 763.7 480 765.3C640 767 800 701 960 654C1120 607 1280 579 1440 580.2C1600 581.3 1760 611.7 1840 626.8L1920 642L1920 1081L1840 1081C1760 1081 1600 1081 1440 1081C1280 1081 1120 1081 960 1081C800 1081 640 1081 480 1081C320 1081 160 1081 80 1081L0 1081Z" fill="#0059b7" stroke-linecap="round" stroke-linejoin="miter"></path></svg>